<svg width="254" height="501" viewBox="0 0 254 501" fill="none" xmlns="http://www.w3.org/2000/svg">
<path id="Vector" d="M44.8824 258.195C46.1594 258.745 47.5894 259.007 49.0414 258.888C50.8094 258.768 52.5934 257.978 53.8824 256.669C55.1914 255.37 55.9464 253.617 56.1684 251.886C56.3574 250.467 56.2094 249.056 55.8254 247.736C56.1284 247.711 56.4034 247.697 56.6064 247.697C56.9204 247.697 57.1004 247.716 57.1084 247.716C61.0774 248.247 69.5764 258.735 69.3824 264.019C69.2804 266.78 67.6554 269.916 65.1414 272.2C63.1624 273.998 60.9654 274.969 59.1104 274.857C56.2114 274.688 50.3714 270.761 46.8564 266.62C45.1114 264.564 44.1814 262.713 44.3044 261.544C44.4294 260.353 44.6274 259.241 44.8824 258.195ZM49.6394 250.15C51.7684 248.472 54.0014 247.931 55.4664 247.765C55.3514 249.11 55.1794 250.396 54.8204 251.601C54.3854 253.074 53.6534 254.394 52.6354 255.421C51.6174 256.443 50.3104 257.187 48.8264 257.533C47.6114 257.829 46.3144 257.895 44.9644 257.842C45.8424 254.487 47.4064 251.907 49.6394 250.15ZM58.9934 276.847C59.1234 276.854 59.2534 276.858 59.3854 276.858C61.6754 276.858 64.2374 275.712 66.4824 273.674C69.3774 271.042 71.2524 267.37 71.3734 264.093C71.6094 257.657 62.2734 246.396 57.3714 245.742C56.0994 245.573 52.0054 245.75 48.4064 248.583C44.9744 251.286 42.9274 255.575 42.3234 261.335C42.0904 263.558 43.8334 266.137 45.3374 267.909C48.8464 272.044 55.1714 276.622 58.9934 276.847ZM117.353 57.7161L117.277 57.8721C117.304 57.6881 117.379 57.5771 117.368 57.6131L117.389 57.6341L117.353 57.7161ZM155.194 284.766L155.197 284.762L155.201 284.768L155.194 284.766ZM245.601 34.0831C240.758 64.9561 234.31 118.305 233.211 134.109C232.938 138.039 227.948 159.339 223.939 176.455C218.809 198.363 217.316 204.994 217.316 206.721C217.313 207.443 216.878 211.304 216.459 215.039C214.679 230.861 213.741 241.367 213.581 248.273C202.104 238.38 177.805 215.366 175.463 210.644C174.293 204.253 162.188 189.659 153.188 189.659C148.002 189.659 120.29 180.913 110.28 177.406C103.816 157.241 98.4034 135.563 97.8764 127.648C97.4674 121.543 93.0714 101.046 89.5394 84.5771C87.8824 76.8521 86.4514 70.1801 86.0674 67.8791C85.6544 65.4031 84.1204 60.0311 82.1754 53.2291C78.7554 41.2581 73.0304 21.2221 73.7294 15.9761C74.0954 13.2321 78.5654 8.50013 84.7384 7.32413C89.9444 6.33013 97.5554 7.65113 104.213 19.5821C111.235 32.1621 115.021 46.3881 117.689 58.1271L117.293 58.2191C117.257 58.0831 117.262 57.9701 117.277 57.8721L117.238 57.9341C117.042 58.2751 116.618 58.6971 116.197 59.0881C115.303 59.8811 114.215 60.6201 113.076 61.2811C110.785 62.6071 108.255 63.6681 105.642 64.4261C103.028 65.1961 100.302 65.6341 97.5574 65.6061C94.8284 65.5391 92.0334 64.9391 89.6464 63.3861C91.7574 65.2961 94.5634 66.4071 97.4244 66.9221C100.301 67.4081 103.265 67.3991 106.172 67.0201C109.087 66.6481 111.964 65.9521 114.776 64.8701C116.116 64.3481 117.439 63.7391 118.757 62.9281C118.879 63.4841 119.001 64.0441 119.12 64.5851C121.09 73.6261 122.513 80.1581 124.918 83.9001C127.795 88.3761 131.822 103.134 134.89 115.244C133.68 116.584 132.029 117.765 130.225 118.718C127.619 120.109 124.689 121.107 121.704 121.912C118.71 122.711 115.624 123.279 112.51 123.697C109.394 124.097 106.246 124.38 103.08 124.353C106.216 124.821 109.401 124.981 112.591 125.018C115.781 125.038 118.988 124.904 122.2 124.512C125.41 124.109 128.638 123.511 131.823 122.354C133.288 121.818 134.746 121.154 136.154 120.295C136.546 121.875 136.913 123.367 137.247 124.726C138.343 129.178 139.207 132.692 139.792 134.736C140.556 137.413 141.377 142.664 142.248 148.224C144.137 160.298 145.506 167.865 147.45 172.07C144.573 173.628 141.678 175.169 138.764 176.657C136.712 177.7 134.65 178.725 132.564 179.691C131.521 180.173 130.471 180.643 129.408 181.073C128.875 181.284 128.339 181.492 127.796 181.667C127.252 181.842 126.701 182.021 126.122 182.011C126.693 182.131 127.293 182.06 127.867 181.991C128.448 181.92 129.021 181.815 129.596 181.708C130.738 181.484 131.873 181.218 133.002 180.94C135.262 180.382 137.501 179.761 139.734 179.12C143.356 178.075 146.949 176.966 150.545 175.821C154.959 178.292 164.581 177.233 171.251 174.551C172.709 173.964 174.025 173.306 175.203 172.584C177.434 173.587 179.665 174.572 181.913 175.536C185.746 177.177 189.604 178.765 193.498 180.263C197.392 181.757 201.319 183.175 205.32 184.381C207.318 184.985 209.338 185.534 211.39 185.943C213.428 186.332 215.559 186.692 217.61 186.276C215.535 186.469 213.514 185.894 211.553 185.303C209.588 184.688 207.666 183.938 205.767 183.136C201.967 181.532 198.254 179.726 194.578 177.845C190.902 175.962 187.271 173.993 183.667 171.973C182.152 171.123 180.641 170.256 179.134 169.386C180.619 167.725 181.575 165.864 181.956 163.834C182.715 159.786 188.198 143.289 193.501 127.333C193.562 127.15 193.62 126.974 193.682 126.791C193.835 126.869 193.985 126.953 194.141 127.025C195.633 127.771 197.164 128.379 198.701 128.939C201.779 130.039 204.929 130.798 208.083 131.352L210.456 131.714C211.244 131.831 212.043 131.882 212.834 131.969C214.412 132.161 216.004 132.19 217.583 132.269C219.162 132.337 220.746 132.268 222.317 132.273C223.892 132.202 225.462 132.091 227.024 132.001C225.458 131.869 223.896 131.76 222.344 131.611C220.794 131.386 219.244 131.236 217.714 130.952C216.186 130.656 214.656 130.412 213.16 130.01C212.41 129.818 211.655 129.663 210.916 129.443L208.706 128.779C205.789 127.83 202.948 126.698 200.286 125.298C198.963 124.591 197.664 123.849 196.456 123.011C196.029 122.733 195.625 122.434 195.228 122.132C203.435 97.3861 207.314 85.1801 207.314 81.9921C207.314 80.9911 207.792 78.2691 208.53 74.6391C209.936 74.9741 211.339 75.2811 212.76 75.5691C215.449 76.1091 218.158 76.5541 220.89 76.8521C223.618 77.1441 226.379 77.2931 229.134 77.1001C230.509 76.9861 231.887 76.7831 233.211 76.3781C234.524 75.9751 235.814 75.3421 236.732 74.3441C235.66 75.1761 234.358 75.5551 233.066 75.7311C231.766 75.9061 230.446 75.8821 229.138 75.7761C226.516 75.5291 223.931 74.9571 221.384 74.2511C218.838 73.5391 216.328 72.6891 213.853 71.7491C212.397 71.1991 210.938 70.6091 209.505 69.9981C210.81 63.9491 212.479 56.6791 213.886 50.5541C216.604 38.7211 219.169 27.5431 219.644 23.5771C220.32 17.9421 224.264 15.5111 226.553 14.5641C231.209 12.6401 236.712 13.3631 240.577 16.4081C245.052 19.9311 246.836 26.2081 245.601 34.0831ZM223.856 272.721C224.739 277.134 221.377 300.151 218.675 318.646C216.381 334.348 214.213 349.178 214.082 355.499C213.84 367.106 199.143 399.398 192.083 410.346C187.722 413.933 181.955 415.943 175.879 416.319C169.61 416.756 163.115 415.75 156.864 413.907C150.602 412.05 144.527 409.356 138.778 406.063C133.035 402.752 127.601 398.844 122.593 394.405C127.19 399.265 132.301 403.68 137.832 407.554C143.373 411.41 149.343 414.726 155.714 417.243C162.08 419.739 168.891 421.471 176.01 421.613C179.56 421.674 183.191 421.333 186.742 420.347C186.835 420.321 186.927 420.29 187.02 420.265C186.021 426.287 186.902 434.501 187.882 443.557C188.569 449.91 189.281 456.482 189.079 461.329C188.906 465.468 182.291 473.359 167.897 481.656C165.436 483.076 162.913 484.402 160.387 485.621L143.182 415.585L154.311 488.337C145.992 491.77 138.093 493.834 132.595 493.834C125.999 493.834 115.396 489.198 104.466 483.136L101.266 449.12L98.3924 479.646C81.8144 469.811 66.0544 458.056 63.9854 455.599C62.5704 453.159 59.9074 438.253 57.9154 424.036C61.8704 424.806 65.7984 425.322 69.7584 425.718C75.4504 426.265 81.1674 426.464 86.8714 426.23C92.5674 425.99 98.2794 425.316 103.784 423.778C106.53 423.005 109.224 422.008 111.738 420.676C114.249 419.346 116.585 417.664 118.475 415.585C116.376 417.455 113.928 418.845 111.366 419.876C108.798 420.908 106.111 421.592 103.396 422.057C97.9564 422.978 92.4054 423.046 86.9054 422.7C81.4014 422.35 75.9254 421.577 70.5334 420.479C65.3584 419.415 60.1784 418.079 55.3684 416.328C47.5824 410.835 37.3544 387.681 30.3174 367.642C27.1694 358.676 25.1594 335.601 23.6914 318.751C22.8354 308.91 22.2164 301.8 21.5444 298.887C20.6634 295.072 20.5814 287.685 20.5084 281.167C20.4544 276.321 20.4014 272.022 20.0754 268.86C24.6334 268.66 34.1484 268.13 37.1834 267.959C45.9604 274.952 54.1494 280.885 56.6054 281.214C57.5344 281.337 58.4494 281.399 59.3474 281.399C63.8294 281.399 67.8844 279.87 70.9694 276.973C74.7614 273.41 76.7934 267.997 76.4044 262.49C76.1814 259.349 70.0774 249.379 62.4204 238.315C77.2924 257.517 81.9194 261.136 84.1234 261.423C85.5714 261.611 86.9594 261.705 88.2854 261.705C93.7914 261.705 98.1994 260.086 101.171 256.938C104.636 253.266 105.927 247.804 105.034 240.683C110.664 242.9 116.674 244.613 122.804 245.347C122.452 245.939 122.078 246.532 121.671 247.123C120.298 249.11 118.768 251.08 117.108 252.964C113.823 256.759 110.206 260.348 106.403 263.736C98.7944 270.519 90.4294 276.52 81.5504 281.639C77.1144 284.21 72.5114 286.492 67.7894 288.508C63.0664 290.515 58.2264 292.292 53.2524 293.614C48.2854 294.946 43.2214 295.989 38.0824 296.529C32.9434 297.049 27.7554 297.144 22.5744 296.788C27.7244 297.437 32.9384 297.64 38.1514 297.409C43.3634 297.158 48.5484 296.396 53.6694 295.329C58.7994 294.272 63.8254 292.745 68.7584 290.971C73.6904 289.189 78.5294 287.122 83.2174 284.749C92.6044 280.025 101.536 274.362 109.811 267.787C113.951 264.5 117.927 260.987 121.661 257.139C123.541 255.23 125.326 253.197 127.029 251.008C127.88 249.912 128.692 248.754 129.46 247.478C129.684 247.067 129.913 246.684 130.133 246.268C135.127 247.863 139.089 252.354 142.43 257.323C141.663 257.703 140.902 258.087 140.134 258.481C138.14 259.515 136.183 260.599 134.243 261.713C130.371 263.949 126.607 266.358 122.954 268.918C115.648 274.037 108.824 279.854 102.742 286.367C99.7304 289.652 96.9214 293.119 94.3634 296.76C91.8154 300.408 89.6114 304.286 87.6994 308.285C85.7814 312.286 84.3694 316.506 83.2574 320.768C82.1684 325.048 81.6604 329.436 81.4094 333.805C81.9534 329.455 82.7504 325.15 84.1064 321.008C85.4854 316.884 87.1414 312.857 89.2724 309.085C91.3974 305.316 93.7854 301.705 96.4874 298.34C99.1994 294.983 102.136 291.82 105.253 288.849C111.546 282.961 118.492 277.802 125.853 273.35C129.07 271.404 132.36 269.584 135.71 267.892C135.562 268.031 135.404 268.165 135.259 268.305C131.071 272.278 127.568 276.74 124.475 281.41C118.329 290.782 113.768 301.004 110.586 311.6C107.509 322.212 105.813 333.307 106.579 344.335C106.976 349.834 108.029 355.308 109.972 360.457C111.904 365.604 114.766 370.4 118.475 374.399C114.986 370.203 112.428 365.314 110.807 360.167C109.174 355.015 108.438 349.626 108.343 344.253C108.177 333.481 110.411 322.8 113.944 312.688C117.574 302.603 122.532 292.975 128.814 284.445C131.963 280.2 135.47 276.23 139.379 272.909C141.313 271.216 143.407 269.807 145.524 268.579C146.492 268.064 147.472 267.625 148.453 267.252C150.209 270.204 151.847 272.737 153.633 274.524L153.688 274.472L154.055 282.912L155.197 284.762L155.251 284.796L155.51 284.968L156.085 285.372L157.269 286.243L159.65 288.029L164.43 291.634C167.622 294.034 170.831 296.419 174.075 298.756C177.321 301.09 180.599 303.387 183.963 305.558C185.648 306.638 187.353 307.691 189.109 308.658C189.986 309.14 190.876 309.603 191.797 310.001C192.718 310.385 193.66 310.789 194.664 310.858C193.675 310.702 192.784 310.225 191.911 309.768C191.04 309.298 190.202 308.764 189.377 308.213C187.728 307.11 186.134 305.924 184.563 304.711C181.422 302.275 178.375 299.719 175.359 297.126C172.345 294.53 169.369 291.891 166.405 289.23L161.96 285.23L159.722 283.225L158.579 282.221L158.245 281.939L158.411 278.12L175.557 284.4L186.672 288.379L192.252 290.313C194.121 290.922 195.973 291.622 197.901 292.031C196.04 291.411 194.285 290.513 192.499 289.698L187.182 287.157L176.595 281.965L161.001 272.733L158.776 269.699C157.143 268.066 155.085 264.631 153.066 261.17C147.851 252.228 140.708 239.982 128.251 238.695L127.981 238.678C113.06 238.285 98.0374 230.358 88.0594 223.778C74.6494 214.934 64.1734 198.729 64.2104 186.884C64.2234 182.818 65.5374 179.706 68.1034 177.599C68.9004 177.535 69.7574 177.327 70.6754 177.045C69.1664 180.372 68.7024 184.562 71.0704 188.508C75.3424 195.627 91.6804 203.575 100.636 203.575C101.752 203.575 102.753 203.451 103.603 203.187C111.207 200.823 112.095 192.507 112.714 185.671C124.24 189.552 142.914 195.25 150.766 196.479C149.605 197.624 148.553 198.867 147.632 200.198C146.609 201.698 145.751 203.306 145.136 205.002C144.516 206.695 144.157 208.472 144.068 210.251C144.304 208.484 144.804 206.768 145.544 205.169C146.279 203.569 147.239 202.085 148.339 200.727C149.449 199.376 150.696 198.144 152.053 197.063C152.215 196.935 152.382 196.816 152.548 196.693C152.779 196.709 152.996 196.719 153.188 196.719C158.218 196.719 168.108 208.641 168.511 211.866C168.599 212.563 168.725 213.534 170.789 216.249C170.676 216.833 170.5 217.406 170.241 217.958C169.876 218.747 169.363 219.485 168.754 220.161C168.121 220.814 167.41 221.422 166.623 221.941C165.059 223.001 163.262 223.757 161.424 224.372C163.333 224.041 165.249 223.566 167.056 222.71C167.964 222.292 168.83 221.761 169.648 221.135C170.448 220.485 171.184 219.72 171.777 218.827C171.945 218.579 172.096 218.319 172.237 218.055C175.241 221.639 180.733 227.412 190.847 237.031C197.897 243.737 209.584 254.456 214.328 257.94C214.471 258.385 214.63 258.77 214.811 259.094L215.174 259.737L215.751 260.182C215.817 260.233 222.387 265.365 223.856 272.721ZM19.6564 253.27C23.5174 256.682 28.2664 260.718 33.0844 264.651C28.2414 264.918 22.5684 265.221 19.6244 265.349C19.4424 262.708 19.5144 257.682 19.6564 253.27ZM10.1084 237.774C7.53944 233.736 5.30144 215.59 9.31144 212.439C10.1304 211.795 10.9374 211.1 11.7164 210.427C16.6804 206.145 20.9694 202.446 31.4324 207.734L36.5714 210.332L38.4314 212.159C51.0884 227.637 72.5774 258.418 72.8824 262.739C73.1984 267.198 71.5784 271.557 68.5514 274.4C65.5954 277.178 61.6254 278.324 57.0954 277.719C54.2274 277.11 34.5854 260.63 19.9094 247.242L18.6834 246.124C13.1724 241.096 10.5214 238.355 10.1084 237.774ZM75.6934 237.102C76.7234 237.801 78.0354 238.131 79.2854 238.181C80.9064 238.244 82.5164 237.928 84.0104 237.353C85.5064 236.78 86.8994 235.924 88.0644 234.8C88.6134 234.269 89.0894 233.653 89.4634 232.978C91.5994 234.245 93.8714 235.509 96.2644 236.727C98.4844 239.616 100.278 243.079 100.27 246.728C100.264 248.98 98.8534 250.626 97.6704 251.612C94.7174 254.069 89.9204 255.288 86.0004 254.574C80.3144 253.541 74.8294 242.181 74.6084 240.64C74.8424 239.313 75.2184 238.142 75.6934 237.102ZM88.6814 232.514C88.2214 232.97 87.7064 233.366 87.1834 233.74C86.0034 234.546 84.7074 235.188 83.3734 235.707C82.0364 236.219 80.6524 236.622 79.2354 236.809C78.1344 236.939 77.0174 236.954 75.8824 236.707C77.9144 232.632 81.5574 230.725 84.4254 229.835C85.7634 230.713 87.1834 231.611 88.6814 232.514ZM101.705 242.807C101.276 241.286 100.627 239.83 99.8444 238.46C100.301 238.672 100.757 238.886 101.222 239.093C101.456 240.395 101.617 241.633 101.705 242.807ZM46.1164 177.295C51.8994 175.516 56.9144 175.355 60.3474 175.675C58.2544 178.731 57.1644 182.508 57.1504 186.863C57.1074 200.543 67.8654 218.098 82.4444 228.481C78.4814 230.058 73.8304 233.38 72.6314 240.384C72.3084 242.274 78.6524 255.263 85.6434 256.535C86.4914 256.688 87.3774 256.762 88.2774 256.762C92.1084 256.762 96.2134 255.417 98.9434 253.143C99.5944 252.6 100.142 252.018 100.606 251.406C100.099 252.592 99.4364 253.633 98.6044 254.515C94.9674 258.367 88.9704 258.496 84.6094 257.928C82.5464 257.408 73.7374 249.096 37.9244 199.262C36.8824 197.811 36.0364 196.634 35.4274 195.793C34.7754 182.551 40.9944 178.871 46.1164 177.295ZM84.4874 175.146C87.9174 176.93 95.0874 180.452 101.277 182.18C100.354 184.867 100.292 187.663 101.188 190.214C102.153 192.957 104.125 195.143 106.705 196.443C105.771 198.019 104.463 199.223 102.556 199.815C96.3934 201.736 78.0434 193.269 74.0974 186.692C72.3134 183.719 72.9424 180.729 73.7834 178.744C74.4354 177.209 75.2984 176.065 76.0324 175.316C78.9664 174.49 82.2154 173.966 84.4874 175.146ZM109.278 184.494L109.236 184.961C108.917 188.476 108.588 192.049 107.476 194.858C105.313 193.759 103.662 191.926 102.854 189.628C102.077 187.417 102.151 184.975 102.99 182.619C103.765 182.795 104.51 182.926 105.227 183.022C106.27 183.425 107.647 183.924 109.278 184.494ZM244.945 10.8611C239.106 6.26313 230.83 5.15513 223.854 8.04013C217.53 10.6551 213.441 16.0121 212.635 22.7371C212.204 26.3291 209.561 37.8411 207.005 48.9731C202.805 67.2631 200.254 78.6101 200.256 81.9521C200.082 85.1501 192.405 108.245 186.801 125.107C180.932 142.765 175.863 158.014 175.017 162.533C174.566 164.934 171.516 166.685 169.736 167.515C163.439 170.454 155.811 170.508 154.165 169.776C152.381 167.319 150.332 154.223 149.223 147.133C148.279 141.101 147.465 135.892 146.579 132.796C146.031 130.879 145.139 127.247 144.104 123.04C139.597 104.72 134.861 86.3131 130.858 80.0831C129.14 77.4111 127.693 70.7711 126.018 63.0821C123.164 49.9841 119.256 32.0461 110.378 16.1421C101.208 -0.28787 89.5494 -0.77987 83.4174 0.38813C75.0824 1.97713 67.5974 8.55013 66.7314 15.0431C65.9054 21.2431 70.1634 36.8841 75.3874 55.1691C77.1954 61.4961 78.7564 66.9581 79.1034 69.0401C79.5134 71.5011 80.8914 77.9251 82.6364 86.0571C85.7504 100.579 90.4564 122.524 90.8304 128.118C91.4244 137.03 96.8104 157.822 102.151 175.094C98.2864 173.893 93.1774 171.708 87.7444 168.882C81.8234 165.804 74.8664 168.177 70.2644 169.748C69.6044 169.973 68.7744 170.256 68.1924 170.425C64.0254 168.288 54.2704 167.399 44.0404 170.548C32.2014 174.19 27.0234 183.752 28.6004 199.008C17.8004 195.855 11.7234 201.097 7.10444 205.082C6.35244 205.73 5.64244 206.344 4.94944 206.888C-3.43556 213.476 0.613443 236.003 4.15244 241.564C4.95444 242.825 7.82844 245.734 12.7044 250.222C12.5204 254.61 12.1894 264.629 12.8384 267.99C13.3294 270.54 13.3904 275.983 13.4494 281.247C13.5294 288.458 13.6124 295.915 14.6644 300.474C15.2254 302.905 15.8904 310.532 16.6594 319.363C18.2414 337.546 20.2124 360.175 23.6564 369.979C28.1394 382.749 39.4634 412.506 50.4354 421.444C51.9194 432.635 55.2594 455.531 58.2384 459.702C61.4644 464.22 111.183 500.894 132.595 500.894C152.535 500.894 195.413 478.893 196.133 461.623C196.357 456.248 195.617 449.411 194.901 442.798C193.902 433.562 192.532 420.913 195.218 417.959C201.965 410.537 220.828 370.628 221.141 355.646C221.264 349.765 223.399 335.145 225.66 319.667C229.431 293.861 231.824 276.556 230.78 271.336C229.127 263.066 223.122 257.208 220.877 255.264C219.635 249.96 222.508 224.418 223.474 215.828C224.085 210.399 224.363 207.884 224.377 206.799C224.557 204.778 227.88 190.591 230.813 178.065C236.158 155.248 239.963 138.772 240.254 134.6C241.344 118.921 247.756 65.9001 252.575 35.1771C254.799 20.9991 248.749 13.8571 244.945 10.8611Z" fill="white"/>
</svg>
